<?xml version="1.0" encoding="utf-8"?>
<!-- Generator: Adobe Illustrator 27.5.0, SVG Export Plug-In . SVG Version: 6.00 Build 0)  -->
<svg version="1.1" xmlns="http://www.w3.org/2000/svg" xmlns:xlink="http://www.w3.org/1999/xlink" x="0px" y="0px"
	 viewBox="0 0 3710 3710" style="enable-background:new 0 0 3710 3710;" xml:space="preserve">
<g id="Background">
	<g>
		<g>
			<rect style="fill:#FFFFFF;" width="3710" height="3710"/>
		</g>
	</g>
</g>
<g id="Illustration">
	<g>
		<linearGradient id="SVGID_1_" gradientUnits="userSpaceOnUse" x1="3616.1238" y1="4077.0947" x2="1137.6635" y2="999.0024">
			<stop  offset="0" style="stop-color:#DAE3FE"/>
			<stop  offset="1" style="stop-color:#E9EFFD"/>
		</linearGradient>
		<path style="fill:url(#SVGID_1_);" d="M2934.284,2863.206c-56.929,59.933-110.795,98.583-153.354,129.119
			c-500.266,358.946-1092.213,254.315-1218.019,228.763c-185.775-37.732-544.875-110.667-804.497-415.978
			c-392.787-461.91-331.624-1189.635-26.952-1670.017c55.729-87.87,350.108-575.569,948.431-653.781
			c362.099-47.333,784.189,48.132,1089.856,304.22C3411.37,1323.084,3365.693,2409.032,2934.284,2863.206z"/>
		<g>
			<path style="fill:#BDD0FB;" d="M3243.127,469.092c2.638-11.229-13.158-18.692-22.83-10.849
				c-98.218,79.644-334.205,318.143-275.392,734.938c73.789,522.931-52.362,713.744-209.39,830.136
				c0,0,215.651-54.735,351.328-248.355C3419.963,1299.578,3196.227,668.741,3243.127,469.092z"/>
			<path style="fill:#FFFFFF;" d="M3168.383,632.424c-12.287,58.215-23.238,116.609-31.701,175.264
				c-8.818,58.607-15.575,117.418-20.198,176.327c-4.362,58.919-7.443,117.899-7.618,176.905
				c-0.482,59.002,1.971,117.956,4.673,177.139c2.319,59.162,5.043,118.751,0.712,178.762
				c-4.259,59.888-16.865,120.3-41.881,176.932c-6.253,14.114-12.829,28.185-20.3,41.78c-7.182,13.721-15.069,27.172-23.231,40.494
				c-16.483,26.581-35.037,52.264-55.714,76.64c-41.503,48.67-91.557,91.843-146.699,128.383c-5.804,3.846-14.119,2.9-18.573-2.111
				c-4.373-4.921-3.396-11.933,2.135-15.826l0.039-0.027c13.12-9.215,26.103-18.548,38.558-28.349
				c6.32-4.816,12.379-9.863,18.546-14.81c5.942-5.142,12.117-10.087,17.869-15.383c23.414-20.84,45.106-43.075,64.786-66.584
				c39.585-46.801,71.274-98.952,95.282-153.016c11.654-27.158,20.971-55.01,27.773-83.385c6.778-28.382,11.04-57.257,13.398-86.365
				c4.722-58.248,2.589-117.247,0.763-176.42c-1.737-59.188-3.012-118.677-1.45-178.117c0.688-29.718,1.994-59.423,3.916-89.092
				c0.862-14.839,2.056-29.66,3.22-44.481c1.328-14.812,2.751-29.615,4.313-44.405c6.376-59.153,14.839-118.11,25.446-176.753
				c10.933-58.599,23.664-116.928,38.976-174.735c0.438-1.653,2.343-2.685,4.257-2.307
				C3167.537,629.25,3168.718,630.821,3168.383,632.424z"/>
		</g>
		<g>
			<g>
				<path style="fill:#91B3FA;" d="M2988.7,1720.773c12.043,12.777,33.221,9.103,40.465-6.891
					c39.974-88.249,130.43-347.981-18.962-647.207c-126.155-252.682-170.549-401.685-186.015-470.724
					c-3.271-14.599-23.277-16.537-29.316-2.849C2728.247,744.116,2552.326,1257.784,2988.7,1720.773z"/>
				<path style="fill:#FFFFFF;" d="M3010.574,1711.461c0.428,0.077,0.869,0.113,1.321,0.106c3.785-0.058,6.807-3.174,6.749-6.959
					c-0.066-4.291-8.418-433.24-167.956-792.501c-1.536-3.457-5.586-5.017-9.049-3.483c-3.46,1.538-5.019,5.587-3.483,9.049
					c158.378,356.646,166.714,782.883,166.78,787.146C3004.986,1708.152,3007.409,1710.894,3010.574,1711.461z"/>
			</g>
		</g>
		<g>
			<g>
				
					<linearGradient id="SVGID_00000140004107169248197850000002851666634058055613_" gradientUnits="userSpaceOnUse" x1="1993.1398" y1="2128.0642" x2="1197.9414" y2="4390.2725">
					<stop  offset="0" style="stop-color:#09005D"/>
					<stop  offset="1" style="stop-color:#1A0F91"/>
				</linearGradient>
				<polygon style="fill:url(#SVGID_00000140004107169248197850000002851666634058055613_);" points="1512.572,2413.12 
					1457.264,2909.154 2098.942,2909.154 2015.363,2413.12 				"/>
				
					<linearGradient id="SVGID_00000047758708599956724160000012994891757789463208_" gradientUnits="userSpaceOnUse" x1="3157.8147" y1="-193.5964" x2="1210.9393" y2="2486.7856">
					<stop  offset="0" style="stop-color:#09005D"/>
					<stop  offset="1" style="stop-color:#1A0F91"/>
				</linearGradient>
				<path style="fill:url(#SVGID_00000047758708599956724160000012994891757789463208_);" d="M434.666,1190.999v1136.046
					c0,93.455,74.472,169.879,167.896,172.288c414.939,10.7,1866.198,36.645,2261.192,30.822
					c67.889-1,122.886-55.328,124.844-123.196c7.616-263.919,19.987-898.556-25.791-1193.193
					c-9.641-62.047-62.014-108.445-124.774-110.453c-347.667-11.122-1886.096-46.438-2280.906-37.572
					C489.037,1067.27,434.666,1122.891,434.666,1190.999z"/>
				
					<linearGradient id="SVGID_00000013876955169361166020000001783251935350574748_" gradientUnits="userSpaceOnUse" x1="505.9499" y1="1750.1599" x2="2909.2434" y2="1750.1599">
					<stop  offset="0" style="stop-color:#FF928E"/>
					<stop  offset="1" style="stop-color:#FE7062"/>
				</linearGradient>
				<path style="fill:url(#SVGID_00000013876955169361166020000001783251935350574748_);" d="M505.95,1185.469v1079.322
					c0,54.564,43.8,99.024,98.358,99.84l2202.621,27.212c54.09,0.809,98.428-42.709,98.629-96.805l3.685-1069.679
					c0.144-38.68-30.672-70.373-69.341-71.314l-2255.075-45.558C541.578,1107.435,505.95,1142.208,505.95,1185.469z"/>
				<path style="fill:#91B3FA;" d="M2922.141,2436.405c-0.02,0-0.04,0-0.059,0l-2416.19-41.167
					c-1.868-0.033-3.356-1.572-3.324-3.438c0.031-1.85,1.541-3.326,3.382-3.326c0.018,0,0.038,0,0.058,0l2416.19,41.167
					c1.868,0.033,3.356,1.572,3.324,3.438C2925.49,2434.928,2923.981,2436.405,2922.141,2436.405z"/>
				
					<linearGradient id="SVGID_00000074406944670071096100000001293752697126751626_" gradientUnits="userSpaceOnUse" x1="2210.1621" y1="1870.1372" x2="1730.2981" y2="3062.9399">
					<stop  offset="0" style="stop-color:#09005D"/>
					<stop  offset="1" style="stop-color:#1A0F91"/>
				</linearGradient>
				<path style="fill:url(#SVGID_00000074406944670071096100000001293752697126751626_);" d="M2237.159,3010.642h-939.14
					c-25.513,0-44.673-18.163-39.74-37.673l12.051-47.658c3.624-14.333,19.392-24.855,38.12-25.439l905.365-28.251
					c19.566-0.61,36.89,9.775,41.153,24.671l21.724,75.909C2282.336,2991.922,2263.085,3010.642,2237.159,3010.642z"/>
				<path style="fill:#FFFFFF;" d="M1803.574,2913.102c-1.845,0-3.352-1.483-3.38-3.333c-0.026-1.869,1.465-3.405,3.333-3.432
					l38.797-0.565c1.835,0,3.405,1.467,3.432,3.333c0.026,1.869-1.465,3.405-3.333,3.431l-38.797,0.565
					C1803.609,2913.102,1803.591,2913.102,1803.574,2913.102z"/>
				<path style="fill:#91B3FA;" d="M1293.051,2984.688c-0.178,0-0.357-0.013-0.538-0.043c-1.845-0.294-3.101-2.028-2.806-3.871
					l5.534-34.664c2.999-18.784,18.978-32.616,37.995-32.897l411.492-6.015c1.719-0.073,3.404,1.467,3.432,3.333
					c0.026,1.869-1.465,3.405-3.333,3.432l-411.492,6.014c-15.723,0.231-28.935,11.669-31.415,27.196l-5.534,34.664
					C1296.121,2983.503,1294.682,2984.688,1293.051,2984.688z"/>
				
					<linearGradient id="SVGID_00000000904257010996648570000005325805500083783309_" gradientUnits="userSpaceOnUse" x1="2098.7368" y1="-225.9462" x2="1810.8177" y2="857.1755">
					<stop  offset="0" style="stop-color:#FF928E"/>
					<stop  offset="1" style="stop-color:#FE7062"/>
				</linearGradient>
				<path style="fill:url(#SVGID_00000000904257010996648570000005325805500083783309_);" d="M2908.939,1313.528l0.303-88.168
					c0.145-38.68-30.672-70.373-69.34-71.314l-2254.627-45.558c-43.25-1.053-78.43,33.719-78.43,76.982v128.059H2908.939z"/>
			</g>
			<g>
				
					<ellipse transform="matrix(0.9205 -0.3906 0.3906 0.9205 -436.2199 344.4623)" style="opacity:0.49;fill:#FFFFFF;" cx="628.656" cy="1244.558" rx="33.562" ry="33.562"/>
				
					<ellipse transform="matrix(0.9205 -0.3906 0.3906 0.9205 -427.0777 389.4096)" style="opacity:0.49;fill:#FFFFFF;" cx="743.718" cy="1244.558" rx="33.562" ry="33.562"/>
				
					<ellipse transform="matrix(0.3291 -0.9443 0.9443 0.3291 -595.4479 1651.0592)" style="opacity:0.49;fill:#FFFFFF;" cx="864.16" cy="1244.558" rx="33.562" ry="33.562"/>
			</g>
		</g>
		<g>
			<g>
				<g>
					<path style="fill:#BDD0FB;" d="M2968.217,2736.539l-1014.198,0.001v-195.542L2968.217,2541
						C2946.51,2541,2946.51,2736.539,2968.217,2736.539z"/>
					<path style="fill:#7D97F4;" d="M1954.019,2687.608v-89.489c0-31.546,20.042-57.119,44.766-57.119h965.156
						c19.442,0,35.204-15.183,35.204-33.912c0-5.69-4.789-10.303-10.696-10.303H1933.608c-24.191,0-62.598,36.637-62.598,81.832
						v124.981c0,42.612,37.286,77.156,60.094,77.156h1051.795c8.972,0,16.246-7.006,16.246-15.649
						c0-15.776-13.277-28.565-29.654-28.565h-977.123C1971.189,2736.539,1954.019,2714.632,1954.019,2687.608z"/>
				</g>
				<path style="fill:#FFFFFF;" d="M2933.094,2584.548h-950.949c-1.895,0-3.428-1.535-3.428-3.427c0-1.893,1.533-3.428,3.428-3.428
					h950.949c1.895,0,3.428,1.535,3.428,3.428C2936.522,2583.013,2934.989,2584.548,2933.094,2584.548z"/>
				<path style="fill:#FFFFFF;" d="M2933.094,2613.572h-950.949c-1.895,0-3.428-1.535-3.428-3.427s1.533-3.427,3.428-3.427h950.949
					c1.895,0,3.428,1.535,3.428,3.427S2934.989,2613.572,2933.094,2613.572z"/>
				<path style="fill:#FFFFFF;" d="M2933.094,2642.598h-950.949c-1.895,0-3.428-1.535-3.428-3.427c0-1.893,1.533-3.428,3.428-3.428
					h950.949c1.895,0,3.428,1.535,3.428,3.428C2936.522,2641.063,2934.989,2642.598,2933.094,2642.598z"/>
				<path style="fill:#FFFFFF;" d="M2933.094,2671.622h-950.949c-1.895,0-3.428-1.535-3.428-3.427s1.533-3.427,3.428-3.427h950.949
					c1.895,0,3.428,1.535,3.428,3.427S2934.989,2671.622,2933.094,2671.622z"/>
				<path style="fill:#FFFFFF;" d="M2933.094,2700.648h-950.949c-1.895,0-3.428-1.535-3.428-3.427c0-1.893,1.533-3.428,3.428-3.428
					h950.949c1.895,0,3.428,1.535,3.428,3.428C2936.522,2699.113,2934.989,2700.648,2933.094,2700.648z"/>
			</g>
			<g>
				
					<linearGradient id="SVGID_00000034777892443763449520000006092516412892834474_" gradientUnits="userSpaceOnUse" x1="2833.8589" y1="1115.4364" x2="2353.4807" y2="3206.4873">
					<stop  offset="0" style="stop-color:#4F52FF"/>
					<stop  offset="1" style="stop-color:#4042E2"/>
				</linearGradient>
				<path style="fill:url(#SVGID_00000034777892443763449520000006092516412892834474_);" d="M1574.524,3105.4h1679.419
					c11.814,0,21.391-9.577,21.391-21.391v-283.948c0-11.814-9.577-21.391-21.391-21.391H1574.524
					c-11.814,0-21.391,9.577-21.391,21.391v283.948C1553.133,3095.823,1562.71,3105.4,1574.524,3105.4z"/>
				<path style="fill:#7D97F4;" d="M2970.588,3067.849h144.531c4,0,7.242-3.242,7.242-7.242v-237.145c0-4-3.242-7.242-7.242-7.242
					h-144.531c-4,0-7.242,3.242-7.242,7.242v237.145C2963.347,3064.607,2966.589,3067.849,2970.588,3067.849z"/>
				<path style="fill:#7D97F4;" d="M2886.184,3067.849h47.883c3.253,0,5.89-2.637,5.89-5.89v-239.849c0-3.253-2.637-5.89-5.89-5.89
					h-47.883c-3.253,0-5.89,2.637-5.89,5.89v239.849C2880.294,3065.212,2882.931,3067.849,2886.184,3067.849z"/>
			</g>
		</g>
		<g>
			
				<linearGradient id="SVGID_00000136407971426374694220000005615841440047116464_" gradientUnits="userSpaceOnUse" x1="13084.4775" y1="2409.4419" x2="12752.4453" y2="2598.9612" gradientTransform="matrix(-1 0 0 1 15154.0283 0)">
				<stop  offset="0" style="stop-color:#FEBBBA"/>
				<stop  offset="1" style="stop-color:#FF928E"/>
			</linearGradient>
			<path style="fill:url(#SVGID_00000136407971426374694220000005615841440047116464_);" d="M2120.031,2718.403
				c0.392-0.151,210.996-368.969,239.455-403.677c4.788-5.838,12.197-8.811,19.695-7.918l58.784,7.006l69.057,149.397
				l-115.049-67.002c11.384,78.733-136.41,195.74-187.098,238.434c-5.145,4.334-5.566,12.094-0.921,16.958l20.237,21.183
				c-33.224,33.675-71.558,55.298-114.826,65.3L2120.031,2718.403z"/>
			
				<linearGradient id="SVGID_00000111151391118979466870000017089838341485139643_" gradientUnits="userSpaceOnUse" x1="-3554.6831" y1="-1259.7936" x2="-3580.1721" y2="-868.9603" gradientTransform="matrix(0.8974 -0.4412 0.4412 0.8974 5858.749 2161.1482)">
				<stop  offset="0" style="stop-color:#09005D"/>
				<stop  offset="1" style="stop-color:#1A0F91"/>
			</linearGradient>
			<path style="fill:url(#SVGID_00000111151391118979466870000017089838341485139643_);" d="M2212.485,2661.35
				c0,0,12.915,4.173,17.288,15.675c2.093,5.504-0.163,11.737-4.949,15.166c-21.267,15.237-91.415,64.425-123.786,74.06
				c-2.653,0.788-5.178-1.612-4.581-4.315c1.662-7.52,7.035-22.537,24.347-44.521l-1.554,3.141
				c-1.966,3.976,2.364,8.115,6.226,5.935C2147.127,2714.269,2191.228,2687.517,2212.485,2661.35z"/>
			
				<linearGradient id="SVGID_00000160158852362986152190000015225202749379959173_" gradientUnits="userSpaceOnUse" x1="13052.3574" y1="2456.7061" x2="14188.4072" y2="1745.5217" gradientTransform="matrix(-1 0 0 1 15154.0283 0)">
				<stop  offset="0" style="stop-color:#FEBBBA"/>
				<stop  offset="1" style="stop-color:#FF928E"/>
			</linearGradient>
			<path style="fill:url(#SVGID_00000160158852362986152190000015225202749379959173_);" d="M2202.062,2808.923
				c0.354-0.227,31.951-76.355,32.304-76.582c28.971-176.389,99.656-327.453,120.501-367.204
				c3.507-6.685,10.162-11.096,17.685-11.738l58.985-5.036l97.863,132.33l-126.227-42.333
				c27.082,74.8-93.976,219.297-134.974,271.365c-4.16,5.284-3.003,12.97,2.531,16.792l24.104,16.65
				c-25.719,39.702-58.886,68.635-99.234,87.185L2202.062,2808.923z"/>
			
				<linearGradient id="SVGID_00000127753635555882468210000012046558626772161443_" gradientUnits="userSpaceOnUse" x1="-2620.1033" y1="-2667.1125" x2="-2645.5901" y2="-2276.3118" gradientTransform="matrix(0.7895 -0.6137 0.6137 0.7895 5876.3379 3191.1018)">
				<stop  offset="0" style="stop-color:#09005D"/>
				<stop  offset="1" style="stop-color:#1A0F91"/>
			</linearGradient>
			<path style="fill:url(#SVGID_00000127753635555882468210000012046558626772161443_);" d="M2281.058,2734.341
				c0,0,13.492,1.471,20.103,11.851c3.162,4.966,2.215,11.527-1.777,15.854c-17.744,19.224-76.485,81.592-106.237,97.578
				c-2.439,1.311-5.397-0.53-5.36-3.298c0.105-7.701,2.328-23.496,14.833-48.528l-0.886,3.391c-1.12,4.292,3.958,7.469,7.299,4.553
				C2227.762,2799.391,2265.536,2764.268,2281.058,2734.341z"/>
			<g>
				
					<linearGradient id="SVGID_00000150821466140187013380000010356329557888832699_" gradientUnits="userSpaceOnUse" x1="1494.807" y1="12350.2695" x2="1823.8563" y2="11349.4131" gradientTransform="matrix(-1 0 0 1 7322.3281 0)">
					<stop  offset="0" style="stop-color:#4F52FF"/>
					<stop  offset="1" style="stop-color:#4042E2"/>
				</linearGradient>
				<path style="fill:url(#SVGID_00000150821466140187013380000010356329557888832699_);" d="M2707.637,2320.494
					c0,0,53.359,79.365,57.737,115.567c4.378,36.203-14.755,48.722-70.604,53.339c-166.198,13.74-248.126-36.07-248.126-36.07
					c-11.369-72.49-19.459-90.931-114.41-130.345c0,0,120.097,9.535,144.267,0.156
					C2500.672,2313.761,2707.637,2320.494,2707.637,2320.494z"/>
			</g>
			<g>
				
					<linearGradient id="SVGID_00000007391010198461171820000003485798664605123968_" gradientUnits="userSpaceOnUse" x1="-6449.9912" y1="1409.9586" x2="-6329.9131" y2="1711.1721" gradientTransform="matrix(0.9446 -0.3283 0.3283 0.9446 8018.4912 -1699.1722)">
					<stop  offset="0" style="stop-color:#09005D"/>
					<stop  offset="1" style="stop-color:#1A0F91"/>
				</linearGradient>
				<path style="fill:url(#SVGID_00000007391010198461171820000003485798664605123968_);" d="M2472.401,1912.503
					c0,0,54.657-64.669,112.765,14.674c10.524,14.37,50.946,2.515,65.765,32.593c7.65,15.53,24.178,24.353,41.202,21.212
					c42.401-7.821,111.708-8.479,145.927,57.967c26.121,50.718,5.955,80.4-20.155,97.323c-19.177,12.43-26.021,37.663-14.425,57.354
					c11.122,18.887,13.214,44.464-15.505,75.244c-64.359,68.979-191.761-43.774-191.761-43.774l-101.155-239.031L2472.401,1912.503z
					"/>
				
					<linearGradient id="SVGID_00000134940893713708810980000018445099710643716750_" gradientUnits="userSpaceOnUse" x1="3246.8611" y1="1070.2758" x2="2869.8257" y2="1728.3743">
					<stop  offset="0" style="stop-color:#4F52FF"/>
					<stop  offset="1" style="stop-color:#4042E2"/>
				</linearGradient>
				<path style="fill:url(#SVGID_00000134940893713708810980000018445099710643716750_);" d="M2563.332,2309.986
					c0,0-62.136-59.166-92.723-98.355c-16.534-21.184-21.726-49.072-14.08-74.833c13.965-47.047,38.782-95.774,41.045-103.358
					c3.469-11.625,73.141-11.141,73.141-11.141s137.1,88.979,190.967,239.704l-60.496,18.834c0,0-35.797-60.056-71.167-98.239
					c0,0,61.202,80.85,63.357,113.948L2563.332,2309.986z"/>
				
					<linearGradient id="SVGID_00000125599286388919597930000014008124960961536932_" gradientUnits="userSpaceOnUse" x1="-4106.4731" y1="2300.2009" x2="-3775.7195" y2="2300.2009" gradientTransform="matrix(1 0 0 1 6757.5649 0)">
					<stop  offset="0" style="stop-color:#FEBBBA"/>
					<stop  offset="1" style="stop-color:#FF928E"/>
				</linearGradient>
				<path style="fill:url(#SVGID_00000125599286388919597930000014008124960961536932_);" d="M2444.941,2333.336l46.69-50.799
					l53.922,14.519c0,0,62.864,9.74,98.844,0c35.979-9.739,35.979-9.739,35.979-9.739l81.306-25.313l12.77,36.089
					c3.243,9.163-0.015,19.335-7.938,24.965c-7.034,4.998-15.28,10.491-20.535,12.79c-10.708,4.684-246.653,1.481-246.653,1.481
					L2444.941,2333.336z"/>
				
					<linearGradient id="SVGID_00000170261800983816311120000012955406890834718627_" gradientUnits="userSpaceOnUse" x1="-6037.9819" y1="1608.3671" x2="-6021.813" y2="1490.0818" gradientTransform="matrix(0.9974 -0.0717 0.0717 0.9974 8423.4355 105.0094)">
					<stop  offset="0" style="stop-color:#FEBBBA"/>
					<stop  offset="1" style="stop-color:#FF928E"/>
				</linearGradient>
				<path style="fill:url(#SVGID_00000170261800983816311120000012955406890834718627_);" d="M2522.83,1938.531l46.827,87.076
					c-3.091,19.007-50.965,19.544-58.361,8.193c-0.753-1.155-1.183-2.491-1.469-3.84l-28.012-58.182
					c-1.203-5.673,14.351-24.789,19.469-27.514l18.613-9.908C2527.065,1930.541,2497.159,1930.241,2522.83,1938.531z"/>
				<g>
					
						<linearGradient id="SVGID_00000036963233419633824500000009184890665987419818_" gradientUnits="userSpaceOnUse" x1="-7863.042" y1="-179.4261" x2="-7710.7969" y2="-450.3712" gradientTransform="matrix(0.9674 -0.253 0.253 0.9674 10119.957 213.1103)">
						<stop  offset="0" style="stop-color:#FEBBBA"/>
						<stop  offset="1" style="stop-color:#FF928E"/>
					</linearGradient>
					<path style="fill:url(#SVGID_00000036963233419633824500000009184890665987419818_);" d="M2476.965,1870.66
						c0,0-23.697,18.218-31.74,61.451c-8.042,43.232,10.133,57.468,27.763,55.463c17.628-2.005,42.94-9.024,63.311-40.922
						C2556.671,1914.754,2508.106,1848.267,2476.965,1870.66z"/>
					
						<linearGradient id="SVGID_00000013189464323923662510000006393998477534413201_" gradientUnits="userSpaceOnUse" x1="-7830.3047" y1="-415.3772" x2="-7754.1831" y2="-224.4277" gradientTransform="matrix(0.9674 -0.253 0.253 0.9674 10119.957 213.1103)">
						<stop  offset="0" style="stop-color:#09005D"/>
						<stop  offset="1" style="stop-color:#1A0F91"/>
					</linearGradient>
					<path style="fill:url(#SVGID_00000013189464323923662510000006393998477534413201_);" d="M2512.857,1930.828
						c0,0,5.365-61.576-44.741-49.18l-9.601,11.286c0,0-26.489-26.432-0.319-49.204c26.171-22.772,64.584-19.666,87.979,17.498
						c23.394,37.164,32.674,63.71,16.455,88.662c-16.218,24.952-30.741,5.27-30.741,5.27s6.85-21.161-0.406-29.626
						c-7.256-8.464-15.08,6.089-15.08,6.089L2512.857,1930.828z"/>
					
						<linearGradient id="SVGID_00000091737008591563479290000002992850165149828484_" gradientUnits="userSpaceOnUse" x1="-7830.6338" y1="-161.2203" x2="-7678.3896" y2="-432.1638" gradientTransform="matrix(0.9674 -0.253 0.253 0.9674 10119.957 213.1103)">
						<stop  offset="0" style="stop-color:#FEBBBA"/>
						<stop  offset="1" style="stop-color:#FF928E"/>
					</linearGradient>
					<path style="fill:url(#SVGID_00000091737008591563479290000002992850165149828484_);" d="M2520.097,1935.635
						c0,0,2.572-31.669,19.15-23.662c16.579,8.007-4.007,29.68-12.336,37.135L2520.097,1935.635z"/>
				</g>
			</g>
			<g>
				
					<linearGradient id="SVGID_00000149371291219897011780000008490255851566176181_" gradientUnits="userSpaceOnUse" x1="-4191.2598" y1="2146.9424" x2="-4364.2866" y2="2194.3645" gradientTransform="matrix(0.9988 -0.0494 0.0494 0.9988 6716.0962 -55.0328)">
					<stop  offset="0" style="stop-color:#09005D"/>
					<stop  offset="1" style="stop-color:#1A0F91"/>
				</linearGradient>
				<path style="fill:url(#SVGID_00000149371291219897011780000008490255851566176181_);" d="M2599.49,2353.44
					c-0.164,0.009-0.328,0.013-0.494,0.012l-214.752-0.234c-5.309-0.004-9.608-4.313-9.603-9.621
					c0.005-5.311,4.329-9.698,9.623-9.603l214.753,0.235c5.309,0.004,9.607,4.313,9.602,9.621
					C2608.614,2348.994,2604.57,2353.19,2599.49,2353.44z"/>
				
					<linearGradient id="SVGID_00000071559449390741979430000013622848258329595792_" gradientUnits="userSpaceOnUse" x1="6980.394" y1="2268.5303" x2="8536.5918" y2="2137.6001" gradientTransform="matrix(1 0 0 1 -4793.5444 0)">
					<stop  offset="0" style="stop-color:#09005D"/>
					<stop  offset="1" style="stop-color:#1A0F91"/>
				</linearGradient>
				<path style="fill:url(#SVGID_00000071559449390741979430000013622848258329595792_);" d="M2191.19,2158.459h178.848
					c13.194,0,25.202,7.613,30.831,19.547l82.681,175.32h-222.26c-8.503,0-16.142-5.195-19.267-13.102l-64.115-162.233
					C2174.203,2168.617,2181.111,2158.459,2191.19,2158.459z"/>
				
					<linearGradient id="SVGID_00000128478029202050391270000011752814916436814986_" gradientUnits="userSpaceOnUse" x1="-4430.0439" y1="2216.9138" x2="-4485.75" y2="2300.8005" gradientTransform="matrix(1 0 0 1 6757.5649 0)">
					<stop  offset="0" style="stop-color:#4F52FF"/>
					<stop  offset="1" style="stop-color:#4042E2"/>
				</linearGradient>
				<path style="fill:url(#SVGID_00000128478029202050391270000011752814916436814986_);" d="M2317.191,2248.35
					c3.875,12.041,1.013,23.736-6.395,26.12c-7.408,2.384-16.555-5.444-20.43-17.486c-3.875-12.041-1.012-23.735,6.395-26.118
					C2304.168,2228.481,2313.315,2236.309,2317.191,2248.35z"/>
			</g>
		</g>
		<g>
			<g>
				<path style="fill:#7D97F4;" d="M895.949,664.299c0.051-1.447,0.096-2.775,0.132-3.927c0.103-3.249-1.214-6.359-3.632-8.531
					c-14.174-12.727-67.255-56.379-142.271-69.977c-4.043-0.733-7.549,1.093-9.517,3.979c6.253,0.758,14.633,2.353,25.924,5.319
					C803.665,600.903,857.579,626.821,895.949,664.299z"/>
				
					<linearGradient id="SVGID_00000045614296680013381490000010861780101478788518_" gradientUnits="userSpaceOnUse" x1="738.9758" y1="650.9008" x2="895.9486" y2="650.9008">
					<stop  offset="0" style="stop-color:#09005D"/>
					<stop  offset="1" style="stop-color:#1A0F91"/>
				</linearGradient>
				<path style="fill:url(#SVGID_00000045614296680013381490000010861780101478788518_);" d="M766.584,591.162
					c-11.291-2.966-19.672-4.562-25.924-5.319c-1.981,2.904-2.404,6.879-0.242,10.402c1.217,1.983,2.713,4.129,4.552,6.431
					c11.74,14.7,106.622,112.049,106.622,112.049s30.123,3.676,39.331-1.661c2.984-1.729,4.465-32.997,5.026-48.766
					C857.579,626.821,803.665,600.903,766.584,591.162z"/>
			</g>
			
				<linearGradient id="SVGID_00000140733487231687101430000000199015307325582526_" gradientUnits="userSpaceOnUse" x1="855.061" y1="654.1178" x2="896.0504" y2="934.5723">
				<stop  offset="0" style="stop-color:#FEBBBA"/>
				<stop  offset="1" style="stop-color:#FF928E"/>
			</linearGradient>
			<path style="fill:url(#SVGID_00000140733487231687101430000000199015307325582526_);" d="M892.34,765.411v-57.982
				c0-4.91-3.118-9.321-7.794-10.822c-7.196-2.309-18.26-4.471-28.32-0.701c-5.903,2.212-9.87,7.811-10.372,14.094l-4.321,54.154
				L892.34,765.411z"/>
			<g>
				
					<linearGradient id="SVGID_00000178194227861082489390000016373032076553468333_" gradientUnits="userSpaceOnUse" x1="486.2845" y1="752.5614" x2="671.4205" y2="752.5614">
					<stop  offset="0" style="stop-color:#09005D"/>
					<stop  offset="1" style="stop-color:#1A0F91"/>
				</linearGradient>
				<path style="fill:url(#SVGID_00000178194227861082489390000016373032076553468333_);" d="M662.383,714.07
					c-0.693-2.284-2.033-4.193-3.75-5.621c-12.168,2.403-37.516,9.108-89.446,27.444c-60.203,21.257-77.824,39.818-82.903,49.745
					c25.796,7.553,84.421,19.101,168.521,2.665l16.615-7.79C671.42,780.513,670.255,739.995,662.383,714.07z"/>
				<path style="fill:#7D97F4;" d="M569.187,735.893c51.93-18.336,77.278-25.041,89.446-27.444
					c-2.677-2.226-6.289-3.253-9.933-2.494c-29.898,6.221-120.24,27.488-167.454,65.764c-4.713,3.821-3.334,11.363,2.466,13.148
					c0.815,0.251,1.678,0.509,2.572,0.771C491.363,775.711,508.984,757.149,569.187,735.893z"/>
			</g>
			
				<linearGradient id="SVGID_00000129904957937187299220000010415392055911471263_" gradientUnits="userSpaceOnUse" x1="648.5417" y1="684.3" x2="689.5316" y2="964.758">
				<stop  offset="0" style="stop-color:#FEBBBA"/>
				<stop  offset="1" style="stop-color:#FF928E"/>
			</linearGradient>
			<path style="fill:url(#SVGID_00000129904957937187299220000010415392055911471263_);" d="M702.537,815.531l-35.385-42.403
				c-3.445-4.129-9.049-5.762-14.158-4.084c-5.663,1.86-13.19,5.698-20.471,13.615c-3.397,3.692-4.064,9.163-1.764,13.622
				l25.741,49.884L702.537,815.531z"/>
			
				<linearGradient id="SVGID_00000011746704525431442910000008604747500052251306_" gradientUnits="userSpaceOnUse" x1="942.7092" y1="520.2568" x2="828.3699" y2="1163.1487">
				<stop  offset="0" style="stop-color:#4F52FF"/>
				<stop  offset="1" style="stop-color:#4042E2"/>
			</linearGradient>
			<path style="fill:url(#SVGID_00000011746704525431442910000008604747500052251306_);" d="M833.78,745.225
				c0,0,43.179-8.291,67.14,0c0,0,31.578,189.522,26.152,250.46l-93.292,18.962C833.78,1014.647,831.13,801.116,833.78,745.225z"/>
			
				<linearGradient id="SVGID_00000082335798861470424870000015330962466133363368_" gradientUnits="userSpaceOnUse" x1="1123.0479" y1="723.4573" x2="698.0275" y2="1244.45">
				<stop  offset="0" style="stop-color:#4F52FF"/>
				<stop  offset="1" style="stop-color:#4042E2"/>
			</linearGradient>
			<path style="fill:url(#SVGID_00000082335798861470424870000015330962466133363368_);" d="M1216.663,1077.288
				c0,0-305.073,17.128-428.893,8.585c-12.129-0.838-22.886-8.013-28.319-18.889c-26.539-53.127-106.125-212.551-113.107-227.766
				c0,0,32.326-27.007,56.193-30.737c0,0,112.992,125.702,117.717,189.834c0,0,261.663-75.257,287.507-74.544
				c25.844,0.713,105.097,36.075,105.097,36.075L1216.663,1077.288z"/>
			
				<linearGradient id="SVGID_00000106140389937379911610000000292293017172654264_" gradientUnits="userSpaceOnUse" x1="1617.8853" y1="786.2009" x2="1685.0039" y2="786.2009">
				<stop  offset="0" style="stop-color:#FEBBBA"/>
				<stop  offset="1" style="stop-color:#FF928E"/>
			</linearGradient>
			<path style="fill:url(#SVGID_00000106140389937379911610000000292293017172654264_);" d="M1623.332,839.498
				c0,0-11.195-23.27-1.485-35.552c9.709-12.282,44.708-50.293,44.708-50.293l4.069-26.27l14.381,42.789l-30.865,64.552
				C1654.139,834.724,1636.068,854.27,1623.332,839.498z"/>
			
				<linearGradient id="SVGID_00000049201743701381980670000005131345751558812332_" gradientUnits="userSpaceOnUse" x1="1623.3319" y1="893.6899" x2="1701.7164" y2="893.6899">
				<stop  offset="0" style="stop-color:#FEBBBA"/>
				<stop  offset="1" style="stop-color:#FF928E"/>
			</linearGradient>
			<path style="fill:url(#SVGID_00000049201743701381980670000005131345751558812332_);" d="M1701.716,947.752
				c-11.305-39.724-26.863-77.535-47.578-113.028l-30.807,4.774l15.202,106.798C1650.162,949.813,1681.885,957.831,1701.716,947.752
				z"/>
			<path style="fill:#7D97F4;" d="M1721.667,1051.744c-3.941-35.883-10.449-70.609-19.951-103.992
				c-19.831,10.079-51.554,2.061-63.183-1.456l4.365,30.667l-11.677-41.299c-14.203-50.232-44.412-94.455-86.04-125.954
				l-28.993-21.938c-28.49-21.557-74.042-14.111-103.108,6.664c-64.533,46.123-160.325,123.452-193.031,150.05
				c-7.032,5.719-16.665,6.997-24.953,3.328l-5.456-2.416c-5.158-2.284-10.849,1.888-10.223,7.494l13.885,126.955l221.689-2.558
				c26.583,0,103.585-2.74,115.835-26.33l20.499-50.316c48.04,40.855,109.66,68.922,142.675,77.101
				C1709.216,1081.513,1723.477,1068.227,1721.667,1051.744z"/>
			
				<linearGradient id="SVGID_00000008108569768002456180000018156132211451432611_" gradientUnits="userSpaceOnUse" x1="1494.1163" y1="780.6083" x2="1603.0039" y2="780.6083">
				<stop  offset="0" style="stop-color:#FEBBBA"/>
				<stop  offset="1" style="stop-color:#FF928E"/>
			</linearGradient>
			<path style="fill:url(#SVGID_00000008108569768002456180000018156132211451432611_);" d="M1565.966,719.67l-68.151,66.202
				c-4.544,4.414-4.97,11.618-0.898,16.469c21.021,25.047,39.06,38.181,54.059,39.17c6.363,0.419,12.388-2.939,15.803-8.324
				l36.225-57.118L1565.966,719.67z"/>
			
				<linearGradient id="SVGID_00000116937834742985042670000001226297760293617539_" gradientUnits="userSpaceOnUse" x1="1843.3926" y1="998.0286" x2="1551.3405" y2="1240.731">
				<stop  offset="0" style="stop-color:#FEBBBA"/>
				<stop  offset="1" style="stop-color:#FF928E"/>
			</linearGradient>
			<polygon style="fill:url(#SVGID_00000116937834742985042670000001226297760293617539_);" points="1703.518,1045.887 
				1762.145,1023.071 1830.302,1077.288 1708.256,1077.743 			"/>
			<g>
				
					<linearGradient id="SVGID_00000029003984086276077320000015473858593253153455_" gradientUnits="userSpaceOnUse" x1="1632.5526" y1="773.8195" x2="1593.6967" y2="645.6635">
					<stop  offset="0" style="stop-color:#FEBBBA"/>
					<stop  offset="1" style="stop-color:#FF928E"/>
				</linearGradient>
				<path style="fill:url(#SVGID_00000029003984086276077320000015473858593253153455_);" d="M1680.241,704.362
					c0,0-9.299,65.394-34.419,85.504c-25.121,20.11-74.062,4.968-90.593-44.331l32.938-84.291L1680.241,704.362z"/>
				
					<linearGradient id="SVGID_00000175303873607804112600000016541661542831937955_" gradientUnits="userSpaceOnUse" x1="1597.4894" y1="538.5037" x2="1633.615" y2="744.5533">
					<stop  offset="0" style="stop-color:#09005D"/>
					<stop  offset="1" style="stop-color:#1A0F91"/>
				</linearGradient>
				<path style="fill:url(#SVGID_00000175303873607804112600000016541661542831937955_);" d="M1584.456,715.789
					c1.911,0.616,3.911-0.609,4.209-2.594c0.907-6.036,3.17-17.983,7.753-26.12c0,0-2.397-8.579,21.682,4.381
					c24.079,12.961,60.247,31.999,81.54,20.662c20.76-11.053,41.789-66.682-13.077-56.375c-2.088,0.392-4.007-1.271-3.851-3.389
					c0.674-9.143-0.233-30.177-21.533-36.928c-19.932-6.318-30.844,2.681-35.341,8.112c-1.323,1.598-3.779,1.566-5.04-0.081
					c-5.971-7.795-22.187-24.387-46.058-13.868c-19.662,8.665-22.72,20.776-22.396,28.323c0.105,2.445-2.376,4.102-4.599,3.078
					c-6.021-2.774-15.708-4.215-24.986,7.41c-12.827,16.072,5.503,30.008,11.002,33.663c0.901,0.599,1.461,1.591,1.468,2.672
					c0.052,8.359,1.353,44.817,19.626,65.382c1.582,1.781,4.506,1.259,5.428-0.937l14.069-33.522
					c0.654-1.557,2.39-2.355,3.997-1.837L1584.456,715.789z"/>
				
					<linearGradient id="SVGID_00000062172137218088469170000014396335236532596387_" gradientUnits="userSpaceOnUse" x1="1592.3057" y1="786.0212" x2="1553.4502" y2="657.8664">
					<stop  offset="0" style="stop-color:#FEBBBA"/>
					<stop  offset="1" style="stop-color:#FF928E"/>
				</linearGradient>
				<path style="fill:url(#SVGID_00000062172137218088469170000014396335236532596387_);" d="M1584.753,722.595
					c0,0-8.591-34.993-21.642-23.631c-13.051,11.361,3.402,36.367,18.353,41.133L1584.753,722.595z"/>
			</g>
			<path style="fill:#91B3FA;" d="M1486.604,870.205c0,0,2.628-80.957-30.63-82.583c-41.299-2.021-107.68,27.91-68.164,146.561
				c21.832,65.552,54.733,114.193,145.06,134.8c4.396-33.219,19.452-56.367,30.582-69.421
				C1526.652,973.63,1495.475,933.223,1486.604,870.205z"/>
			<path style="fill:#BDD0FB;" d="M1559.308,999.793c-0.644,0-1.294-0.193-1.86-0.591c-42.378-29.86-65.906-70.709-74.048-128.544
				c-0.026-0.183-0.035-0.369-0.03-0.556c0.696-21.635-2.898-78.041-27.554-79.248c-11.921-0.572-24.427,1.666-35.215,6.337
				c-1.641,0.707-3.545-0.044-4.255-1.685c-0.71-1.64,0.045-3.545,1.685-4.257c11.678-5.056,25.21-7.467,38.101-6.861
				c35.328,1.729,33.889,79.403,33.715,85.638c7.91,55.799,30.581,95.172,71.328,123.885c1.461,1.031,1.811,3.05,0.781,4.51
				C1561.327,999.316,1560.326,999.793,1559.308,999.793z"/>
			<path style="fill:#BDD0FB;" d="M1504.12,1064.084c-0.35,0-0.706-0.057-1.056-0.177c-74.933-25.86-101.153-77.14-118.324-128.699
				c-3.889-11.68-6.891-22.93-8.924-33.444c-0.34-1.754,0.807-3.451,2.562-3.789c1.758-0.342,3.453,0.809,3.792,2.563
				c1.98,10.236,4.91,21.211,8.71,32.622c16.648,49.988,42.017,99.685,114.295,124.628c1.69,0.585,2.587,2.424,2.004,4.115
				C1506.717,1063.243,1505.463,1064.084,1504.12,1064.084z"/>
			
				<linearGradient id="SVGID_00000155842553204767379310000004601169093583253678_" gradientUnits="userSpaceOnUse" x1="1780.8923" y1="922.8209" x2="1488.8408" y2="1165.5227">
				<stop  offset="0" style="stop-color:#FEBBBA"/>
				<stop  offset="1" style="stop-color:#FF928E"/>
			</linearGradient>
			<path style="fill:url(#SVGID_00000155842553204767379310000004601169093583253678_);" d="M1720.111,1077.289l-0.138-31.402
				c0,0-88.013,1.948-156.52-46.326c-11.13,13.054-26.186,36.202-30.582,69.421
				C1578.577,1079.41,1638.971,1082.667,1720.111,1077.289z"/>
			<g>
				
					<linearGradient id="SVGID_00000030482082585552205090000006675603469472408727_" gradientUnits="userSpaceOnUse" x1="-7381.8027" y1="705.0842" x2="-7607.3511" y2="766.9011" gradientTransform="matrix(-0.9988 -0.0494 -0.0494 0.9988 -5778.3198 -55.0328)">
					<stop  offset="0" style="stop-color:#09005D"/>
					<stop  offset="1" style="stop-color:#1A0F91"/>
				</linearGradient>
				<path style="fill:url(#SVGID_00000030482082585552205090000006675603469472408727_);" d="M1607.288,1088.246
					c0.214,0.01,0.428,0.016,0.644,0.014l279.939-0.305c6.92-0.006,12.524-5.622,12.517-12.542
					c-0.007-6.922-5.643-12.641-12.545-12.517l-279.939,0.306c-6.921,0.005-12.524,5.622-12.517,12.542
					C1595.395,1082.448,1600.667,1087.918,1607.288,1088.246z"/>
				
					<linearGradient id="SVGID_00000061472802932318394190000009298054231147823255_" gradientUnits="userSpaceOnUse" x1="-7684.8511" y1="868.1604" x2="-7844.8882" y2="1037.3094" gradientTransform="matrix(-1 0 0 1 -5819.7886 0)">
					<stop  offset="0" style="stop-color:#09005D"/>
					<stop  offset="1" style="stop-color:#1A0F91"/>
				</linearGradient>
				<path style="fill:url(#SVGID_00000061472802932318394190000009298054231147823255_);" d="M2139.524,834.078h-233.135
					c-17.198,0-32.852,9.925-40.188,25.481l-107.778,228.538h289.725c11.083,0,21.042-6.772,25.115-17.08l83.577-211.478
					C2161.669,847.32,2152.663,834.078,2139.524,834.078z"/>
				<path style="fill:#91B3FA;" d="M1975.278,951.256c-5.052,15.696-1.32,30.94,8.336,34.048c9.656,3.108,21.58-7.097,26.632-22.793
					c5.052-15.696,1.32-30.94-8.336-34.048C1992.254,925.356,1980.33,935.56,1975.278,951.256z"/>
			</g>
		</g>
		<g>
			
				<linearGradient id="SVGID_00000119818014447578642150000008047108593830148281_" gradientUnits="userSpaceOnUse" x1="996.0026" y1="1552.7247" x2="2500.3157" y2="1552.7247">
				<stop  offset="0" style="stop-color:#4F52FF"/>
				<stop  offset="1" style="stop-color:#4042E2"/>
			</linearGradient>
			<polygon style="fill:url(#SVGID_00000119818014447578642150000008047108593830148281_);" points="1748.161,1323.459 
				996.003,1552.725 1748.161,1781.99 2500.316,1552.725 			"/>
			
				<linearGradient id="SVGID_00000006689119001038145190000002118021599179184312_" gradientUnits="userSpaceOnUse" x1="1274.7731" y1="1920.0806" x2="2186.6689" y2="1920.0806">
				<stop  offset="0" style="stop-color:#4F52FF"/>
				<stop  offset="1" style="stop-color:#4042E2"/>
			</linearGradient>
			<path style="fill:url(#SVGID_00000006689119001038145190000002118021599179184312_);" d="M1748.16,1822.86l-473.386-144.293
				v329.627c0,54.103,37.835,100.896,90.761,112.117c254.222,53.901,498.67,55.574,732.733,1.763
				c51.848-11.92,88.402-58.376,88.402-111.577v-321.3L1748.16,1822.86z"/>
			
				<linearGradient id="SVGID_00000051386004347553571320000017201810579882343857_" gradientUnits="userSpaceOnUse" x1="1050.3942" y1="1827.3391" x2="1184.7471" y2="1827.3391">
				<stop  offset="0" style="stop-color:#4F52FF"/>
				<stop  offset="1" style="stop-color:#4042E2"/>
			</linearGradient>
			<path style="fill:url(#SVGID_00000051386004347553571320000017201810579882343857_);" d="M1170.215,1999.093
				c-41.124,18.269-77.087,18.653-107.889,1.151c-9.006-5.118-13.487-15.64-11.444-25.795l66.946-332.859l66.438,330.342
				C1186.522,1983.151,1180.674,1994.447,1170.215,1999.093z"/>
			
				<linearGradient id="SVGID_00000015318458445411174870000000046576636304268732_" gradientUnits="userSpaceOnUse" x1="1108.0861" y1="1608.2859" x2="1748.1591" y2="1608.2859">
				<stop  offset="0" style="stop-color:#4F52FF"/>
				<stop  offset="1" style="stop-color:#4042E2"/>
			</linearGradient>
			<polygon style="fill:url(#SVGID_00000015318458445411174870000000046576636304268732_);" points="1748.159,1518.762 
				1108.086,1586.775 1108.086,1697.81 1127.055,1697.81 1129.001,1600.501 			"/>
		</g>
		<g>
			<g>
				<g style="opacity:0.3;">
					<path style="fill:#91B3FA;" d="M1284.496,2555.233c3.34,0.52,5.816,3.491,5.642,6.941c-0.378,7.545-1.09,15.187-2.115,22.71
						c-0.499,3.661-3.87,6.224-7.529,5.726c-0.044-0.007-0.086-0.014-0.129-0.02c-3.591-0.559-6.088-3.894-5.595-7.51
						c0.974-7.148,1.65-14.406,2.01-21.574c0.184-3.688,3.325-6.531,7.015-6.345
						C1284.032,2555.171,1284.266,2555.197,1284.496,2555.233z M1275.105,2612.737c0.258,0.04,0.518,0.096,0.776,0.168
						c3.558,0.993,5.638,4.683,4.645,8.24c-2.041,7.307-4.414,14.6-7.054,21.674c-1.292,3.461-5.127,5.214-8.605,3.93
						c-3.461-1.292-5.218-5.146-3.927-8.604c2.509-6.724,4.763-13.652,6.702-20.597
						C1268.562,2614.248,1271.802,2612.222,1275.105,2612.737z M1253.286,2666.742c0.736,0.115,1.465,0.355,2.157,0.73
						c3.246,1.761,4.453,5.82,2.693,9.068c-3.607,6.657-7.549,13.24-11.718,19.565c-2.035,3.083-6.182,3.932-9.265,1.905
						c-3.083-2.032-3.937-6.181-1.904-9.265c3.959-6.007,7.701-12.256,11.128-18.578
						C1247.761,2667.611,1250.57,2666.319,1253.286,2666.742z M1219.932,2714.523c1.216,0.189,2.394,0.717,3.385,1.59
						c2.772,2.441,3.038,6.668,0.598,9.439c-5.01,5.685-10.324,11.221-15.797,16.455c-2.669,2.548-6.901,2.455-9.456-0.211
						c-2.552-2.669-2.457-6.903,0.211-9.456c5.198-4.97,10.247-10.228,15.005-15.632
						C1215.446,2714.93,1217.749,2714.183,1219.932,2714.523z M1176.761,2753.666c1.705,0.266,3.307,1.187,4.395,2.697
						c2.161,2.996,1.484,7.177-1.512,9.336c-6.13,4.42-12.536,8.642-19.04,12.542c-3.166,1.902-7.275,0.876-9.176-2.293
						c-1.899-3.167-0.873-7.275,2.295-9.177c6.182-3.707,12.271-7.719,18.097-11.92
						C1173.306,2753.778,1175.083,2753.404,1176.761,2753.666z M1126.01,2782.281c2.208,0.344,4.194,1.785,5.133,3.993
						c1.444,3.4-0.14,7.326-3.539,8.772c-6.967,2.96-14.149,5.66-21.344,8.019c-3.512,1.151-7.288-0.762-8.439-4.273
						c-1.151-3.508,0.762-7.287,4.271-8.438c6.838-2.243,13.66-4.805,20.28-7.619
						C1123.563,2782.228,1124.819,2782.096,1126.01,2782.281z M881.403,2760.305c0.915,0.143,1.813,0.478,2.637,1.019
						c6.006,3.944,12.266,7.679,18.605,11.099c3.25,1.754,4.464,5.811,2.71,9.06c-1.753,3.252-5.81,4.465-9.061,2.711
						c-6.676-3.602-13.27-7.534-19.595-11.687c-3.088-2.028-3.947-6.175-1.92-9.262
						C876.265,2760.981,878.891,2759.914,881.403,2760.305z M1070.216,2798.927c2.741,0.427,5.036,2.545,5.553,5.428
						c0.653,3.637-1.766,7.112-5.401,7.765c-7.452,1.338-15.052,2.367-22.591,3.06c-3.679,0.321-6.935-2.368-7.273-6.048
						c-0.338-3.677,2.37-6.934,6.049-7.273c7.159-0.657,14.376-1.635,21.452-2.905
						C1068.757,2798.822,1069.502,2798.816,1070.216,2798.927z M933.399,2786.588c0.436,0.068,0.873,0.178,1.303,0.338
						c6.741,2.501,13.68,4.742,20.622,6.667c3.56,0.988,5.645,4.673,4.659,8.232c-0.988,3.558-4.673,5.663-8.232,4.659
						c-7.304-2.026-14.606-4.385-21.7-7.014c-3.463-1.285-5.23-5.135-3.945-8.597C927.23,2787.84,930.323,2786.109,933.399,2786.588
						z M1012.102,2802.693c3.335,0.519,5.81,3.483,5.643,6.928c-0.178,3.69-3.313,6.536-7.003,6.36
						c-7.554-0.365-15.194-1.06-22.707-2.071c-0.047-0.004-0.094-0.012-0.141-0.019c-3.586-0.558-6.082-3.885-5.597-7.497
						c0.492-3.662,3.858-6.231,7.519-5.738c7.136,0.958,14.393,1.617,21.571,1.963
						C1011.628,2802.633,1011.868,2802.656,1012.102,2802.693z"/>
					<path style="fill:#91B3FA;" d="M844.638,2731.083c1.301,0.203,2.557,0.79,3.582,1.769c2.494,2.382,5.08,4.749,7.684,7.042
						c2.773,2.439,3.044,6.666,0.604,9.438c-2.439,2.774-6.668,3.049-9.439,0.603c-2.741-2.41-5.459-4.901-8.085-7.406
						c-2.671-2.55-2.771-6.785-0.221-9.455C840.336,2731.426,842.548,2730.758,844.638,2731.083z"/>
				</g>
				<g style="opacity:0.3;">
					<path style="fill:#91B3FA;" d="M763.83,2543.875c3.19,0.497,5.636,3.247,5.652,6.578c0.014,3.448,0.102,6.954,0.26,10.418
						c0.168,3.691-2.686,6.818-6.376,6.987c-3.705,0.168-6.818-2.688-6.987-6.376c-0.166-3.648-0.258-7.34-0.275-10.97
						c-0.016-3.694,2.965-6.701,6.659-6.718C763.127,2543.792,763.483,2543.821,763.83,2543.875z"/>
					<path style="fill:#91B3FA;" d="M1064.13,2285.113c3.041,0.473,6.085,1.001,9.132,1.581c3.628,0.692,6.01,4.193,5.319,7.822
						c-0.691,3.628-4.212,6.02-7.821,5.321c-7.032-1.338-14.102-2.389-21.095-3.129c-3.676-0.395-6.336-3.681-5.948-7.354
						c0.389-3.676,3.682-6.338,7.355-5.949C1055.399,2283.862,1059.792,2284.438,1064.13,2285.113z M1107.416,2295.653
						c0.369,0.057,0.74,0.147,1.107,0.27c7.075,2.374,14.127,5.074,20.961,8.026c3.39,1.464,4.952,5.401,3.488,8.79
						c-1.465,3.391-5.41,4.961-8.792,3.488c-6.491-2.803-13.191-5.367-19.913-7.625c-3.501-1.175-5.387-4.966-4.213-8.466
						C1101.107,2297,1104.255,2295.161,1107.416,2295.653z M1015.9,2282.137c3.116,0.485,5.545,3.129,5.648,6.395
						c0.116,3.693-2.782,6.78-6.474,6.897c-7.062,0.222-14.211,0.751-21.25,1.574c-3.67,0.423-6.991-2.199-7.419-5.867
						c-0.428-3.67,2.199-6.992,5.868-7.42c7.412-0.866,14.942-1.422,22.379-1.658
						C1015.078,2282.046,1015.495,2282.074,1015.9,2282.137z M1159.447,2319.775c0.839,0.131,1.665,0.426,2.436,0.892
						c6.374,3.866,12.66,8.053,18.682,12.441c2.985,2.175,3.641,6.357,1.465,9.342c-2.176,2.987-6.357,3.645-9.344,1.467
						c-5.718-4.166-11.687-8.141-17.741-11.813c-3.159-1.914-4.165-6.029-2.25-9.186
						C1154.144,2320.531,1156.849,2319.371,1159.447,2319.775z M959.18,2290.279c2.556,0.398,4.758,2.269,5.448,4.933
						c0.927,3.576-1.222,7.226-4.798,8.153c-6.836,1.77-13.694,3.859-20.383,6.207c-3.485,1.224-7.303-0.608-8.526-4.096
						c-1.222-3.485,0.61-7.3,4.095-8.523c7.041-2.473,14.261-4.672,21.46-6.536C957.387,2290.179,958.305,2290.143,959.18,2290.279z
						 M905.618,2310.67c2.043,0.318,3.911,1.577,4.927,3.557c1.685,3.287,0.387,7.318-2.9,9.003
						c-6.303,3.233-12.544,6.769-18.547,10.509c-3.133,1.958-7.256,1.001-9.213-2.138c-1.953-3.136-0.995-7.259,2.14-9.214
						c6.319-3.937,12.885-7.657,19.519-11.058C902.848,2310.659,904.271,2310.46,905.618,2310.67z M857.776,2342.253
						c1.554,0.242,3.028,1.029,4.113,2.335c2.361,2.84,1.971,7.057-0.87,9.417c-5.454,4.531-10.776,9.34-15.818,14.297
						c-2.633,2.588-6.865,2.556-9.458-0.082c-2.588-2.635-2.553-6.868,0.082-9.458c5.307-5.215,10.907-10.279,16.646-15.046
						C854.007,2342.441,855.946,2341.968,857.776,2342.253z M817.964,2383.515c1.077,0.168,2.126,0.601,3.05,1.313
						c2.925,2.256,3.466,6.455,1.21,9.379c-4.329,5.611-8.466,11.468-12.297,17.413c-2.001,3.104-6.145,3.998-9.244,2
						c-3.106-2.001-4-6.141-1.999-9.245c4.035-6.262,8.392-12.431,12.949-18.337
						C813.178,2384.037,815.632,2383.152,817.964,2383.515z M788.169,2432.53c0.605,0.094,1.208,0.275,1.791,0.546
						c3.349,1.555,4.804,5.533,3.248,8.882c-2.977,6.411-5.721,13.032-8.153,19.687c-1.269,3.47-5.119,5.247-8.578,3.984
						c-3.469-1.268-5.253-5.109-3.985-8.579c2.561-7.004,5.448-13.977,8.584-20.725
						C782.362,2433.559,785.299,2432.083,788.169,2432.53z M769.883,2486.856c0.136,0.021,0.271,0.048,0.407,0.077
						c3.608,0.789,5.893,4.355,5.103,7.962c-1.115,5.093-2.085,10.28-2.885,15.423c-0.29,1.861-0.557,3.723-0.806,5.58
						c-0.49,3.662-3.854,6.234-7.515,5.744c-3.716-0.423-6.232-3.853-5.744-7.512c0.261-1.956,0.543-3.911,0.848-5.87
						c0.842-5.408,1.864-10.867,3.036-16.224C763.087,2488.563,766.418,2486.316,769.883,2486.856z"/>
					<path style="fill:#91B3FA;" d="M1205,2354.877c1.314,0.205,2.579,0.801,3.608,1.791c2.607,2.513,5.21,5.129,7.736,7.775
						c2.552,2.671,2.455,6.905-0.216,9.456c-2.672,2.551-6.903,2.458-9.456-0.217c-2.401-2.513-4.873-4.997-7.348-7.384
						c-2.659-2.561-2.737-6.795-0.174-9.455C1200.723,2355.213,1202.922,2354.553,1205,2354.877z"/>
				</g>
				<g>
					<path style="fill:#91B3FA;" d="M1184.147,2430.138c-0.674-1.15-2.004-1.747-3.312-1.485l-37.302,7.48
						c-12.241-12.878-26.623-23.896-42.794-32.429l-2.911-37.908c-0.102-1.33-1.037-2.448-2.327-2.785l-44.154-11.531
						c-1.291-0.337-2.652,0.182-3.392,1.292l-21.074,31.646c-18.279-0.463-36.212,2.116-53.186,7.366l-28.882-24.764
						c-1.012-0.868-2.464-0.998-3.614-0.324l-39.375,23.068c-1.151,0.675-1.747,2.005-1.485,3.312l7.48,37.302
						c-12.878,12.24-23.896,26.623-32.429,42.794l-37.909,2.911c-1.33,0.102-2.448,1.036-2.785,2.326l-11.531,44.154
						c-0.337,1.29,0.182,2.652,1.292,3.391l31.646,21.074c-0.463,18.279,2.116,36.212,7.365,53.185l-24.764,28.883
						c-0.867,1.012-0.998,2.464-0.324,3.614l23.068,39.374c0.674,1.151,2.004,1.747,3.311,1.485l37.302-7.481
						c12.24,12.878,26.623,23.897,42.794,32.429l2.91,37.909c0.102,1.329,1.036,2.448,2.326,2.785l44.154,11.53
						c1.29,0.337,2.652-0.182,3.391-1.292l21.074-31.646c18.279,0.464,36.212-2.116,53.186-7.365l28.882,24.763
						c1.012,0.869,2.465,0.999,3.615,0.324l39.374-23.069c1.151-0.674,1.747-2.004,1.485-3.311l-7.48-37.302
						c12.878-12.24,23.896-26.623,32.429-42.794l37.909-2.91c1.329-0.102,2.448-1.036,2.785-2.327l11.53-44.153
						c0.337-1.29-0.182-2.652-1.292-3.392l-31.646-21.074c0.463-18.278-2.117-36.211-7.365-53.185l24.763-28.882
						c0.868-1.012,0.998-2.463,0.324-3.615L1184.147,2430.138z"/>
					<g>
						<path style="fill:#BDD0FB;" d="M1029.887,2505.788c22.094,3.441,38.968,22.686,38.781,45.696
							c-0.207,25.294-20.951,45.701-46.243,45.496c-12.254-0.097-23.734-4.965-32.325-13.698
							c-8.593-8.733-13.271-20.292-13.17-32.544c0.207-25.294,20.951-45.701,46.243-45.496
							C1025.453,2505.262,1027.697,2505.447,1029.887,2505.788z M1017.313,2585.857c1.706,0.266,3.441,0.409,5.199,0.424
							c19.391,0.159,35.297-15.492,35.456-34.882c0.158-19.393-15.485-35.305-34.883-35.457
							c-19.391-0.159-35.297,15.491-35.456,34.881c-0.076,9.396,3.509,18.256,10.098,24.953
							C1003.083,2581.219,1009.903,2584.703,1017.313,2585.857z"/>
					</g>
					<path style="fill:#BDD0FB;" d="M1039.155,2440.18c3.795,0.591,7.582,1.376,11.348,2.359l0,0
						c1.186,0.309,2.366,0.638,3.542,0.985c5.794,1.714,11.443,3.886,16.86,6.483c0.074,0.035,0.148,0.071,0.222,0.106
						c0.209,0.101,0.418,0.203,0.626,0.306c0.407,0.198,0.811,0.401,1.215,0.604c1.061,0.535,1.612,1.681,1.439,2.797
						c-0.042,0.271-0.128,0.541-0.258,0.798c-0.666,1.319-2.275,1.843-3.593,1.18c-6.786-3.428-13.987-6.147-21.403-8.082
						c-36.835-9.625-74.282,1.168-100.318,25.32c-14.483,13.432-25.433,30.998-30.782,51.486c-0.939,3.593-1.689,7.206-2.252,10.826
						c-3.79,24.358,0.873,49.073,13.503,70.629c14.506,24.762,37.788,42.393,65.554,49.643
						c57.346,14.969,116.133-19.489,131.1-76.806c0.923-3.534,1.664-7.102,2.221-10.688c2.417-15.538,1.407-31.432-3.013-46.538
						c-0.114-0.391-0.135-0.785-0.076-1.162c0.154-0.991,0.864-1.856,1.892-2.156c1.42-0.411,2.905,0.394,3.319,1.818
						c4.64,15.859,5.702,32.547,3.164,48.859c-0.585,3.764-1.362,7.508-2.33,11.218c-15.714,60.178-77.472,96.342-137.629,80.634
						c-29.15-7.612-53.59-26.121-68.819-52.116c-13.26-22.63-18.155-48.576-14.177-74.148c0.592-3.8,1.38-7.593,2.363-11.363
						c7.613-29.152,26.121-53.592,52.116-68.822C987.625,2441.09,1013.578,2436.198,1039.155,2440.18z"/>
				</g>
			</g>
			<g>
				<g style="opacity:0.3;">
					<path style="fill:#91B3FA;" d="M1537.129,2416.2c1.766,0.275,3.213,1.68,3.458,3.543c0.459,3.476,0.818,7.015,1.067,10.515
						c0.162,2.275-1.55,4.25-3.827,4.414c-2.278,0.171-4.251-1.552-4.414-3.827c-0.238-3.336-0.58-6.708-1.017-10.026
						c-0.299-2.26,1.294-4.334,3.555-4.635C1536.353,2416.132,1536.748,2416.14,1537.129,2416.2z"/>
					<path style="fill:#91B3FA;" d="M1538.372,2447.952c2.068,0.322,3.598,2.165,3.484,4.298c-0.318,6.03-0.951,12.112-1.88,18.075
						c-0.195,1.256-0.406,2.513-0.628,3.772c-0.401,2.248-2.651,3.641-4.79,3.349c-2.246-0.399-3.744-2.543-3.347-4.788
						c0.214-1.204,0.416-2.406,0.602-3.605c0.886-5.688,1.489-11.489,1.794-17.239c0.12-2.28,2.064-4.027,4.342-3.909
						C1538.093,2447.917,1538.234,2447.93,1538.372,2447.952z M1530.877,2490.182c0.193,0.03,0.389,0.073,0.579,0.131
						c2.182,0.67,3.408,2.98,2.74,5.162c-2.143,6.999-4.741,13.927-7.719,20.587c-0.931,2.084-3.384,3.009-5.457,2.085
						c-2.084-0.933-3.016-3.372-2.085-5.456c2.841-6.355,5.318-12.963,7.363-19.638
						C1526.908,2491.066,1528.88,2489.871,1530.877,2490.182z M1513.365,2529.334c0.518,0.081,1.029,0.262,1.505,0.549
						c1.951,1.182,2.572,3.724,1.39,5.675c-3.79,6.249-8.011,12.331-12.551,18.071c-1.416,1.792-4.007,2.095-5.803,0.677
						c-1.789-1.414-2.092-4.013-0.679-5.801c4.329-5.474,8.354-11.27,11.967-17.231
						C1510.09,2529.8,1511.76,2529.084,1513.365,2529.334z M1486.763,2562.984c0.845,0.132,1.655,0.527,2.303,1.179
						c1.601,1.625,1.583,4.243-0.042,5.844c-5.216,5.14-10.794,9.999-16.585,14.446c-1.811,1.388-4.404,1.041-5.791-0.763
						c-1.39-1.809-1.05-4.401,0.761-5.793c5.52-4.236,10.843-8.873,15.815-13.774
						C1484.193,2563.167,1485.513,2562.79,1486.763,2562.984z M1452.75,2589.115c1.18,0.184,2.272,0.876,2.926,1.987
						c1.157,1.964,0.502,4.495-1.463,5.655c-6.302,3.71-12.891,7.068-19.587,9.978c-2.094,0.915-4.526-0.048-5.435-2.141
						c-0.909-2.093,0.05-4.528,2.141-5.435c6.389-2.778,12.675-5.979,18.687-9.522
						C1450.875,2589.134,1451.839,2588.974,1452.75,2589.115z M1413.43,2606.198c1.529,0.238,2.861,1.332,3.329,2.915
						c0.645,2.187-0.606,4.482-2.793,5.129c-7.014,2.068-14.223,3.717-21.425,4.898c-2.259,0.363-4.375-1.159-4.746-3.409
						c-0.37-2.25,1.157-4.376,3.407-4.744c6.869-1.127,13.74-2.698,20.426-4.67
						C1412.233,2606.138,1412.846,2606.106,1413.43,2606.198z M1371.139,2613.146c1.913,0.298,3.411,1.915,3.488,3.919
						c0.088,2.28-1.689,4.199-3.968,4.289c-7.283,0.283-14.678,0.111-21.983-0.508c-2.275-0.232-3.961-2.197-3.766-4.469
						c0.193-2.273,2.192-3.958,4.465-3.767c6.968,0.595,14.022,0.758,20.966,0.489
						C1370.613,2613.088,1370.88,2613.105,1371.139,2613.146z M1307.688,2603.796c0.235,0.037,0.473,0.094,0.708,0.175
						c5.697,1.953,11.601,3.628,17.549,4.978c0.9,0.209,1.786,0.405,2.672,0.588c2.234,0.47,3.665,2.657,3.197,4.89
						c-0.465,2.239-2.682,3.73-4.889,3.199c-0.945-0.2-1.886-0.404-2.83-0.624c-6.214-1.413-12.404-3.169-18.378-5.218
						c-2.159-0.74-3.308-3.087-2.568-5.246C1303.808,2604.616,1305.745,2603.493,1307.688,2603.796z"/>
				</g>
				<g style="opacity:0.3;">
					<path style="fill:#91B3FA;" d="M1388.712,2266.393c2.228,0.347,3.77,2.425,3.452,4.665c-0.321,2.257-2.413,3.829-4.671,3.506
						c-6.8-0.969-13.716-1.531-20.557-1.67c-2.266-0.067-4.094-1.931-4.047-4.215c0.047-2.283,1.935-4.092,4.215-4.047
						c7.174,0.15,14.425,0.736,21.553,1.752C1388.673,2266.387,1388.693,2266.39,1388.712,2266.393z M1409.416,2270.625
						c0.148,0.023,0.292,0.054,0.439,0.093c6.947,1.857,13.852,4.158,20.523,6.833c2.117,0.852,3.145,3.253,2.295,5.371
						c-0.849,2.122-3.265,3.138-5.371,2.299c-6.365-2.555-12.953-4.748-19.583-6.524c-2.203-0.588-3.512-2.854-2.922-5.056
						C1405.348,2271.58,1407.36,2270.305,1409.416,2270.625z M1346.542,2265.542c1.81,0.282,3.275,1.751,3.472,3.66
						c0.233,2.265-1.416,4.295-3.686,4.529c-6.836,0.707-13.684,1.833-20.359,3.354c-2.231,0.498-4.438-0.887-4.943-3.113
						c-0.507-2.222,0.887-4.438,3.111-4.945c6.997-1.593,14.178-2.773,21.343-3.511
						C1345.844,2265.478,1346.199,2265.489,1346.542,2265.542z M1448.573,2286.366c0.464,0.072,0.924,0.225,1.36,0.465
						c6.301,3.476,12.451,7.377,18.275,11.595c1.849,1.337,2.262,3.92,0.924,5.77c-1.336,1.841-3.919,2.256-5.767,0.923
						c-5.555-4.021-11.417-7.738-17.424-11.054c-1.996-1.103-2.723-3.616-1.62-5.613
						C1445.182,2286.892,1446.907,2286.107,1448.573,2286.366z M1305.421,2274.91c1.445,0.225,2.726,1.212,3.255,2.683
						c0.774,2.149-0.341,4.515-2.487,5.288c-6.45,2.319-12.825,5.058-18.95,8.146c-2.04,1.03-4.523,0.206-5.549-1.832
						c-1.026-2.038-0.206-4.523,1.832-5.549c6.423-3.233,13.107-6.108,19.869-8.541
						C1304.065,2274.862,1304.762,2274.807,1305.421,2274.91z M1267.746,2293.869c1.106,0.172,2.137,0.79,2.805,1.792
						c1.264,1.899,0.75,4.465-1.149,5.728c-5.721,3.809-11.26,7.996-16.462,12.444c-1.736,1.485-4.345,1.279-5.825-0.454
						c-1.483-1.733-1.28-4.339,0.453-5.821c5.454-4.666,11.26-9.057,17.254-13.047
						C1265.718,2293.917,1266.762,2293.715,1267.746,2293.869z M1235.696,2321.31c0.777,0.121,1.528,0.463,2.151,1.037
						c1.683,1.54,1.797,4.155,0.255,5.837c-4.644,5.062-9.016,10.456-12.993,16.03c-1.325,1.851-3.906,2.286-5.761,0.96
						c-1.857-1.326-2.288-3.904-0.962-5.763c4.172-5.842,8.756-11.501,13.625-16.813
						C1232.981,2321.54,1234.376,2321.104,1235.696,2321.31z"/>
					<path style="fill:#91B3FA;" d="M1482.905,2311.231c0.787,0.123,1.547,0.474,2.175,1.057c2.589,2.408,5.117,4.904,7.518,7.417
						c1.574,1.65,1.516,4.266-0.134,5.842c-1.651,1.568-4.263,1.512-5.842-0.134c-2.288-2.398-4.702-4.778-7.171-7.077
						c-1.671-1.554-1.763-4.169-0.21-5.838C1480.213,2311.457,1481.596,2311.028,1482.905,2311.231z"/>
				</g>
				<g>
					<path style="fill:#91B3FA;" d="M1471.301,2363.431c-0.451-0.77-1.341-1.169-2.216-0.993l-24.961,5.006
						c-8.191-8.617-17.814-15.991-28.635-21.7l-1.948-25.367c-0.068-0.89-0.693-1.638-1.557-1.864l-29.546-7.716
						c-0.864-0.225-1.775,0.122-2.27,0.864l-14.101,21.176c-12.231-0.31-24.231,1.416-35.589,4.928l-19.327-16.571
						c-0.678-0.58-1.649-0.668-2.419-0.217l-26.348,15.436c-0.77,0.451-1.169,1.341-0.994,2.216l5.005,24.96
						c-8.617,8.191-15.991,17.815-21.7,28.636l-25.367,1.947c-0.89,0.068-1.638,0.694-1.864,1.557l-7.715,29.546
						c-0.226,0.864,0.121,1.775,0.864,2.269l21.176,14.102c-0.31,12.231,1.416,24.231,4.929,35.589l-16.571,19.327
						c-0.58,0.677-0.668,1.649-0.217,2.418l15.437,26.348c0.451,0.77,1.341,1.169,2.216,0.994l24.961-5.006
						c8.19,8.618,17.814,15.99,28.635,21.7l1.948,25.367c0.068,0.889,0.693,1.638,1.557,1.864l29.546,7.716
						c0.863,0.226,1.774-0.122,2.269-0.865l14.101-21.176c12.231,0.31,24.231-1.416,35.59-4.928l19.326,16.57
						c0.678,0.581,1.649,0.668,2.419,0.217l26.348-15.436c0.77-0.451,1.169-1.341,0.993-2.216l-5.005-24.96
						c8.617-8.191,15.99-17.815,21.7-28.636l25.367-1.947c0.889-0.068,1.638-0.694,1.863-1.557l7.716-29.545
						c0.225-0.864-0.122-1.775-0.864-2.27l-21.176-14.102c0.31-12.231-1.416-24.231-4.928-35.589l16.571-19.327
						c0.581-0.677,0.668-1.648,0.217-2.419L1471.301,2363.431z"/>
					<g>
						<path style="fill:#BDD0FB;" d="M1368.208,2413.513c6.584,1.025,12.643,4.12,17.401,8.956
							c5.853,5.949,9.038,13.823,8.969,22.169c-0.139,17.223-14.267,31.125-31.497,30.989
							c-17.251-0.171-31.132-14.275-30.991-31.501c0.067-8.347,3.381-16.167,9.33-22.018c5.949-5.855,13.823-9.042,22.171-8.971
							C1365.151,2413.151,1366.695,2413.277,1368.208,2413.513z M1359.785,2467.091c1.098,0.171,2.22,0.264,3.364,0.275
							c12.673,0.1,23.065-10.125,23.169-22.798c0.049-6.136-2.292-11.931-6.598-16.304c-4.307-4.378-10.059-6.808-16.198-6.866l0,0
							c-6.139-0.05-11.932,2.294-16.307,6.598c-4.378,4.307-6.815,10.06-6.865,16.201
							C1340.257,2455.722,1348.714,2465.367,1359.785,2467.091z"/>
					</g>
					<path style="fill:#BDD0FB;" d="M1374.718,2367.854c2.583,0.402,5.165,0.939,7.747,1.611c5.126,1.337,10.121,3.197,14.858,5.535
						c0.212,0.106,0.424,0.213,0.636,0.32c1.639,0.827,2.488,2.596,2.222,4.318c-0.065,0.418-0.197,0.834-0.398,1.232
						c-1.028,2.036-3.513,2.842-5.548,1.822c-4.402-2.225-9.064-3.983-13.854-5.232l-0.002,0c-0.263-0.069-0.528-0.135-0.789-0.2
						c-11.365-2.852-23.01-2.762-34.062,0.089c-5.999,1.548-11.827,3.915-17.339,7.078c-0.045,0.025-0.09,0.051-0.135,0.077
						c-0.137,0.081-0.274,0.158-0.409,0.239c-16.029,9.393-27.443,24.464-32.137,42.439c-0.609,2.326-1.094,4.664-1.459,7.007
						c-2.453,15.769,0.567,31.769,8.742,45.727c9.393,16.029,24.465,27.44,42.438,32.133c17.965,4.684,36.703,2.106,52.734-7.282
						c16.029-9.392,27.444-24.464,32.137-42.439c0.599-2.287,1.077-4.597,1.438-6.917c1.565-10.061,0.911-20.349-1.951-30.127
						c-0.176-0.603-0.21-1.212-0.117-1.794c0.238-1.531,1.334-2.867,2.921-3.33c2.191-0.635,4.484,0.613,5.126,2.807
						c3.201,10.941,3.933,22.454,2.185,33.707c-0.405,2.599-0.939,5.181-1.607,7.74c-5.253,20.113-18.022,36.974-35.958,47.482
						c-17.933,10.504-38.877,13.416-58.994,8.148c-20.112-5.251-36.973-18.018-47.479-35.955
						c-9.149-15.612-12.526-33.513-9.781-51.155c0.408-2.619,0.95-5.237,1.629-7.838
						C1297.683,2386.159,1335.78,2361.791,1374.718,2367.854z"/>
				</g>
			</g>
		</g>
	</g>
</g>
</svg>
